<?xml version="1.0" encoding="UTF-8" standalone="no"?> <svg xmlns:dc="http://purl.org/dc/elements/1.1/" xmlns:cc="http://creativecommons.org/ns#" xmlns:rdf="http://www.w3.org/1999/02/22-rdf-syntax-ns#" xmlns:svg="http://www.w3.org/2000/svg" xmlns="http://www.w3.org/2000/svg" xml:space="preserve" viewBox="0 0 422 104" height="104" width="422" y="0px" x="0px" id="Layer_2"> <metadata id="metadata120"></metadata> <defs id="defs118"></defs> <style id="style85" type="text/css"> .st0,.st1{fill-rule:evenodd;clip-rule:evenodd;fill:#0A73B9;} .st2,.st3{fill-rule:evenodd;clip-rule:evenodd;fill:#29ABE2;} </style> <g aria-label="LIR" transform="matrix(1.0253,0,0,0.975,-43.101188,-445.08234)" style="fill:#0a73b9" id="text36"> <path d="m 188.48,476.28 c -6.1,0 -11.56,0.36 -24.61,1.75 v 3.05 c 6.47,0.37 8.6,2.59 8.6,9.16 v 41.63 c 0,6.38 -2.4,8.88 -8.6,9.16 v 3.14 c 6.29,-0.46 11.01,-0.83 14.25,-0.83 3.23,0 8.14,0.37 14.8,0.83 v -2.96 c -7.95,-0.46 -10.45,-2.68 -10.45,-9.25 v -15.82 c 2.4,0.09 4.44,0.18 5.83,0.18 2.49,0 4.71,-0.27 9.34,-1.01 2.31,4.16 3.14,5.55 6.75,10.73 6.29,9.25 10.08,13.23 14.98,16.19 3.88,2.31 8.14,3.6 12.3,3.6 1.57,0 2.49,-0.09 4.71,-0.46 v -2.96 c -0.64,0.09 -1.1,0.09 -1.57,0.09 -2.96,0 -6.56,-2.03 -9.62,-5.36 -3.14,-3.33 -5.92,-7.03 -11.56,-15.35 -2.12,-3.23 -3.51,-5.18 -4.16,-6.1 -0.46,-0.64 -1.1,-1.48 -1.94,-2.68 5.18,-2.4 7.03,-3.79 9.34,-7.03 2.03,-2.86 3.14,-6.38 3.14,-9.9 0,-12.86 -11.1,-19.8 -31.55,-19.8 z m -122.45,1.2 v 3.05 c 6.384,0.46 8.419,2.68 8.419,9.25 v 42 c 0,6.56 -2.035,8.78 -8.419,9.25 v 3.14 h 47.55 l 10.26,-18.87 h -3.88 c -4.34,7.21 -5.55,8.88 -8.04,11.56 -2.68,2.86 -5.27,3.97 -9.43,3.97 h -9.714 c -3.608,0 -5.736,-0.55 -6.939,-2.03 -1.202,-1.48 -1.388,-2.21 -1.388,-6.56 v -42.47 c 0,-6.47 2.221,-8.78 8.605,-9.25 v -3.05 c -6.014,0.46 -10.45,0.83 -13.509,0.83 -2.96,0 -7.493,-0.36 -13.507,-0.83 z m 62.65,0 v 3.05 c 6.38,0.55 8.41,2.49 8.41,8.69 l 0.09,43.3 c 0,5.92 -2.12,8.14 -8.51,8.51 v 3.14 c 6.01,-0.46 10.54,-0.83 13.5,-0.83 2.96,0 7.4,0.37 13.41,0.83 v -3.14 c -6.38,-0.46 -8.41,-2.59 -8.41,-8.51 l -0.09,-43.3 c 0,-6.01 2.12,-8.14 8.41,-8.69 v -3.05 c -5.92,0.46 -10.36,0.83 -13.41,0.83 -2.96,0 -7.4,-0.36 -13.41,-0.83 z m 61.18,2.12 c 12.12,0 19.43,6.29 19.43,16.56 0,10.73 -7.77,17.02 -21.18,17.02 -1.2,0 -3.14,-0.09 -5.64,-0.18 v -32.84 c 3.51,-0.37 5.73,-0.55 7.4,-0.55 z" id="path90"></path> </g> <g aria-label="group" transform="matrix(1.002,0,0,0.997,-43.101188,-445.08234)" style="fill:#29abe2" id="text40"> <path style="fill:#29abe2;stroke-width:1.53999996px" id="path110" d="m 284.86,476.57 c -7.88,0 -13.61,5.11 -13.61,12.19 0,4.68 2.71,8.87 6.77,10.47 0.67,0.24 1.6,0.61 2.65,0.86 l -3.75,0.8 c -5.23,1.1 -6.53,2.15 -6.53,5.17 0,2.52 1.23,3.75 5.29,5.11 -2.03,1.23 -2.89,1.78 -4.25,2.71 -2.09,1.54 -3.08,2.89 -3.08,4.37 0,4.19 6.1,7.02 14.91,7.02 6.77,0 11.83,-1.1 15.28,-3.26 3.14,-1.97 5.11,-5.05 5.11,-8 0,-2.4 -1.54,-4.68 -3.69,-5.54 -1.6,-0.61 -3.2,-0.86 -8.81,-1.17 -2.95,-0.12 -7.88,-0.49 -10.29,-0.67 -0.86,-0.06 -1.53,-0.18 -2.21,-0.36 -1.17,-0.3 -1.66,-0.86 -1.66,-1.97 0,-1.47 0.49,-1.9 2.77,-2.64 l 1.47,-0.49 c 0.55,-0.12 1.1,-0.36 1.84,-0.49 l 0.67,-0.12 c 0.98,0.06 1.78,0.12 2.4,0.12 6.96,0 12.69,-5.36 12.69,-11.83 0,-2.83 -0.55,-4.43 -2.89,-7.64 l 8.25,0.69 v 0.53 c 3.45,0.61 3.82,0.67 4.92,1.35 0.92,0.61 1.1,1.17 1.1,3.82 v 14.41 c 0,4.8 -1.35,6.28 -5.97,6.47 v 2.21 c 4.31,-0.3 7.57,-0.55 9.79,-0.55 2.27,0 5.66,0.24 10.16,0.55 v -2.21 c -5.97,-0.12 -7.82,-1.6 -7.82,-6.22 v -13.18 l 2.95,-4.06 c 1.47,-1.97 2.95,-3.01 4.31,-3.01 0.61,0 1.47,0.18 2.65,0.74 l 2.95,1.41 2.58,-5.17 -3.75,-1.47 c -1.17,-0.49 -2.28,-0.67 -3.2,-0.67 -1.66,0 -3.07,0.98 -4.8,3.57 l -3.69,5.42 v -8.5 l -1.23,-0.12 c -4.98,2.87 -6.46,3.26 -10.47,3.56 v -3.92 l -10.47,2.46 c -4.06,-2.15 -5.97,-2.71 -9.36,-2.71 z m 62.99,0.24 c -10.22,0 -17.43,7.08 -17.43,17 0,10.29 7.45,17.8 17.56,17.74 10.1,0 17,-6.77 17,-16.75 0,-10.59 -7.02,-17.99 -17.13,-17.99 z m 84.84,0.12 c -2.77,0 -4.8,0.98 -9.05,3.88 l -3.26,2.21 v -5.73 l -1.04,-0.12 c -5.29,2.95 -6.46,3.32 -10.9,3.63 v 1.6 c 3.38,0.61 3.63,0.67 4.68,1.35 0.98,0.61 1.1,0.92 1.1,3.82 v 28.65 c 0,4.25 -1.41,5.72 -5.85,6.22 v 2.21 c 4.25,-0.3 7.45,-0.49 9.61,-0.49 2.21,0 5.6,0.18 10.1,0.49 v -2.21 c -5.97,-0.3 -7.76,-1.72 -7.76,-6.28 v -6.53 c 3.45,1.54 4.93,1.84 7.82,1.84 9.73,0 16.88,-7.88 16.88,-18.54 0,-9.05 -5.29,-16.02 -12.32,-16.02 z m -54.29,0.24 c -5.29,2.95 -6.46,3.32 -10.84,3.63 v 1.6 c 0.8,0.12 1.53,0.3 2.09,0.43 0.98,0.18 1.91,0.55 2.58,0.92 0.98,0.61 1.1,1.17 1.1,3.82 v 14.66 c 0,4.31 0.86,6.34 3.32,7.82 1.35,0.86 3.01,1.35 4.62,1.35 3.51,0 7.2,-1.41 11.27,-4.25 0.61,-0.43 1.54,-1.1 2.71,-2.03 v 5.54 l 1.17,0.8 11.64,-4.19 v -2.09 c -1.72,0.86 -2.64,1.16 -3.75,1.16 -1.35,0 -2.58,-0.92 -2.71,-2.27 -0.12,-0.61 -0.12,-1.66 -0.12,-3.2 v -23.59 l -1.17,-0.12 c -5.36,3.01 -6.53,3.32 -11.02,3.63 v 1.6 c 0.86,0.12 1.6,0.3 2.28,0.43 1.04,0.18 1.91,0.55 2.58,0.92 0.98,0.61 1.1,1.17 1.1,3.82 v 15.15 c -2.71,2.27 -3.94,3.07 -6.28,4 -1.41,0.61 -2.89,0.92 -4.25,0.92 -3.69,0 -5.23,-1.91 -5.23,-6.65 v -23.72 z m -93.91,1.6 c 4.8,0 7.88,4.49 7.88,11.21 0,5.36 -2.58,8.56 -6.9,8.56 -4.43,0 -8,-3.63 -8,-9.42 v -1.1 c 0,-5.73 2.71,-9.24 7.02,-9.24 z m 61.81,0.18 c 6.59,0 12.26,8.37 12.26,17.99 0,7.64 -3.69,12.32 -9.55,12.32 -5.79,0 -10.16,-5.23 -11.64,-14.04 -0.24,-1.29 -0.3,-2.71 -0.3,-4.06 0,-7.45 3.57,-12.2 9.24,-12.2 z m 83.49,2.27 c 5.36,0 8.93,5.3 8.93,13.31 0,8.56 -4.68,14.72 -11.08,14.72 -1.41,0 -2.71,-0.24 -4,-0.92 -1.29,-0.67 -1.97,-1.23 -3.32,-2.89 v -20.02 c 0.92,-0.55 1.66,-1.1 2.4,-1.54 2.83,-1.78 5.05,-2.65 7.08,-2.65 z m -150.98,30.56 c 3.51,0.49 4,0.43 9.67,0.8 5.6,0.3 7.45,0.55 8.62,0.86 1.23,0.36 2.09,1.41 2.09,2.46 0,3.08 -3.08,5.17 -8.5,5.6 -1.78,0.12 -3.45,0.3 -4.92,0.3 -6.9,0 -11.58,-1.84 -11.58,-4.49 0,-1.04 0.49,-1.72 2.03,-3.01 1.04,-0.86 1.54,-1.29 2.58,-2.52 z"></path> </g> <g aria-label="|" transform="matrix(0.864,0,0,1.1569,-43.101188,-445.08234)" style="fill:#29abe2" id="text44"> <path style="stroke-width:1.51600003px" id="path96" d="m 295.03,410.26 v 43.67 h 4.6 v -43.67 z"></path> </g> </svg> 