<?xml version="1.0" encoding="UTF-8" standalone="no"?> <svg xmlns:dc="http://purl.org/dc/elements/1.1/" xmlns:cc="http://creativecommons.org/ns#" xmlns:rdf="http://www.w3.org/1999/02/22-rdf-syntax-ns#" xmlns:svg="http://www.w3.org/2000/svg" xmlns="http://www.w3.org/2000/svg" xml:space="preserve" viewBox="0 0 478 441" height="441" width="478" y="0px" x="0px" id="Layer_2"> <metadata id="metadata120"></metadata> <defs id="defs118"></defs> <style id="style85" type="text/css"> .st0,.st1{fill-rule:evenodd;clip-rule:evenodd;fill:#0A73B9;} .st2,.st3{fill-rule:evenodd;clip-rule:evenodd;fill:#29ABE2;} </style> <path style="clip-rule:evenodd;fill:#0a73b9;fill-rule:evenodd" id="path87" d="m 387.67816,307.34229 c -18,42 -48.7,13.8 -53.7,6.6 -4.9,-7.2 -120.2,-216.2 -120.2,-216.2 -5.8,-9.5 -21.3,-0.3 -15.7,10.3 l 169.4,306.4 -350.099997,0.1 c -14,0.5 -15,20.3 0,20.7 l 423.099997,-1 c 18.8,-1.7 27.4,-12.4 27.4,-12.4 10.9,-15.8 -21.7,-62.5 -32.2,-109.5 -7.1,-27.6 0.2,-50 -12.7,-81.5 -15.7,-52.8 -56.7,-82.1 -94.4,-103 -37.7,-20.9 -39.9,-89.000002 28.6,-67.300002 0,0 2.9,0.4 4.4,-2 0.1,-0.2 4.2,-7.5 0.5,-13.8 -3.7,-6.3 -18.6,-12.5 -18.1,-14.6 0.5,-2.1 3.4,1.3 24.7,2.7 0,0 11.8,-1 13.3,-7.3 1.2,-5 -37.8,-26.7 -61.2,-14.1 0,0 -20.4,8.2 -35.7,37.2 -15.3,29.000002 -19.3,62.500002 7.7,85.500002 27,23 63,43.5 71.5,56.5 8.5,13 41.4,74.7 23.4,116.7 z" class="st1"></path> <path style="clip-rule:evenodd;fill:#0a73b9;fill-rule:evenodd" id="path89" d="m 407.17816,97.94229 c -1.8,0 -2.4,0.3 -5.8,-2 -6.5,-3 -10.8,-6.7 -13.9,-9.7 -6.27,-6.18 -11.03,-14.47 -18.3,-19.600002 -2.2,-1.5 -2.6,-2.5 -1.3,-5.5 2.7,-5 3.3,-12.5 4.2,-14.2 1.7,-6.2 -2.6,-7.5 0.1,-10.3 0.8,-0.8 3.1,-0.9 4.4,0 2.6,1.8 5.4,3.5 7.1,6.3 2.8,3.9 7.1,16.5 12,22.6 0,0 11.2,11.900002 12.2,12.700002 4.78,4.44 8.53,10.72 11.5,15.8 1.3,2.1 0.4,3.8 -2.1,3.8 -3.38,0.28 -6.7,0.1 -10.1,0.1 z" class="st1"></path> <polygon transform="translate(-16.221837,-12.157712)" style="clip-rule:evenodd;fill:#29abe2;fill-rule:evenodd" id="polygon91" points="149.2,162.9 315.1,363.7 132.4,178.2 128.2,182.3 310.9,367.9 112.7,198.9 108.9,203.4 307.1,372.3 94.9,221.3 91.5,226.1 303.7,377.1 79.1,245.2 76.2,250.2 300.7,382.2 65.5,270.3 63,275.6 298.1,387.5 54.1,296.5 52.1,302 296.1,393 45.1,323.7 43.5,329.3 294.5,398.7 38.4,351.5 37.3,357.3 293.4,404.5 34.2,379.8 33.6,385.6 292.9,410.3 32.5,408.3 32.4,414.2 365.2,416.8 201.1,127.2 196,130.1 324.5,356.7 176.8,142.2 171.9,145.5 319.6,360 153.8,159.2 " class="st2"></polygon> </svg> 